<?xml version="1.0" encoding="utf-8"?>
<!-- Generator: Adobe Illustrator 18.0.0, SVG Export Plug-In . SVG Version: 6.00 Build 0)  -->
<!DOCTYPE svg PUBLIC "-//W3C//DTD SVG 1.1//EN" "http://www.w3.org/Graphics/SVG/1.1/DTD/svg11.dtd">
<svg version="1.1" id="Layer_1" xmlns="http://www.w3.org/2000/svg" xmlns:xlink="http://www.w3.org/1999/xlink" x="0px" y="0px"
	 viewBox="0 0 511 230" enable-background="new 0 0 511 230" xml:space="preserve">
<g>
	<g>
		<path fill="#5ECAE7" d="M79.5,61.8l-46.2,0V34.2h121.6v27.6l-46.2,0V192H79.5V61.8z"/>
		<path fill="#5ECAE7" d="M152.5,114.6V34.2h75.1c35.2,0,56.8,23.1,56.8,54c0,30.9-21.6,54-56.8,54h-46V192h-29.1v-49.7
			 M181.7,114.6h43.7c20.6,0,29.9-12.3,29.9-26.4c0-14.1-9.3-26.4-29.9-26.4h-43.7V114.6z"/>
		<path fill="#5ECAE7" d="M274.7,146.3c11.8,12.6,28.4,21.4,46.7,21.4c22.1-0.3,37.7-8.5,37.7-23.6c0-35.2-101.7-1.3-101.7-65.6
			c0-28.1,29.4-47.5,65.3-47.5c26.1,0,47.2,8.3,62.8,24.1l-21.6,19.3c-14.3-14.1-27.4-18.8-42.7-18.8C297,55.6,288,67.4,288,76.9
			c0,35.4,101.7,0,101.7,65.6c0,32.9-33.4,52.8-69.6,52.8c-22.1,0-47.7-8.3-67.6-29.1L274.7,146.3z"/>
		<path fill="#5ECAE7" d="M400.3,124.2l-3-6.8l-2.9-5.2l-4.9-7.2l-8.8-12.1l-6.9-8.2l-9.9-10.3l21.6-19.3l30.6,37.2l36.5-55h33.7
			l-56.5,88.2V195h-29.1L400.3,124.2z"/>
	</g>
	<circle fill="#5DCAE7" cx="423.2" cy="49.7" r="11.8"/>
	<rect x="386.3" y="173.2" fill="#5ECAE7" width="57.9" height="21.9"/>
</g>
</svg>
